<svg id="Layer_1" data-name="Layer 1" xmlns="http://www.w3.org/2000/svg" viewBox="0 0 612 410.21"><defs><style>.cls-1,.cls-4{fill:#5b4a43;}.cls-2{fill:#f9b648;}.cls-3{fill:#f7a720;}.cls-4{font-size:58.62px;font-family:Algerian;}</style></defs><path class="cls-1" d="M423,298.71a77.81,77.81,0,0,0-33.26,14.15L388.29,310l.34-.25a81.52,81.52,0,0,1,10.57-6.52,78,78,0,0,1,7.61-3.46,82,82,0,0,1,16.44-4.58,81.19,81.19,0,0,1,11-1.11,8.2,8.2,0,0,0,7.38-5.15l0-.05c-1.64-.09-3.29-.14-4.94-.13-.32,0-.64,0-.95,0-1.35,0-2.69,0-4,.12h0a87.48,87.48,0,0,0-45.81,16.29c-10.23-20.47-21.39-42.93-26.67-53.88l-.31-.65.44-.57a.69.69,0,0,0,.1-.71.91.91,0,0,0-1-.58.72.72,0,0,0-.3.12h0c-.58-1.11-1.4-2.68-1.66-3.22l-7.26-15.12,16.28-30.89c.56-1.07.48-2.82-.93-3.22l-10.7-3.05a3.39,3.39,0,0,0-3.49-3.15l-27.25-.55a4.1,4.1,0,0,0-2.49.73,4.71,4.71,0,0,0-1.76,2.63,5.06,5.06,0,0,0-.06,2.35,3.75,3.75,0,0,0,.6,1.37,3.42,3.42,0,0,0,2.83,1.38l27.26.54h0a4.18,4.18,0,0,0,.88-.08,1.68,1.68,0,0,0,.24-.07,4.91,4.91,0,0,0,.58-.17,2,2,0,0,0,.25-.14A4.31,4.31,0,0,0,352,198l.23-.19c.13-.11.26-.21.37-.32s0,0,0,0l8.2,2.33L347.77,224.6c-.25-1.55-.49-3.1-.74-4.66,0,0,0,0,0-.05v0c0-.11,0-.23,0-.34s-.07-.31-.1-.46,0-.2-.07-.29a3.66,3.66,0,0,0-.18-.46,1.73,1.73,0,0,0-.1-.24,3.7,3.7,0,0,0-.25-.43c-.05-.06-.08-.13-.13-.19a3.81,3.81,0,0,0-.33-.36c-.06-.05-.1-.11-.16-.16a2.8,2.8,0,0,0-.4-.27l-.19-.12a3.75,3.75,0,0,0-.47-.17l-.23-.07a4,4,0,0,0-.51,0,1.22,1.22,0,0,0-.27,0,3.73,3.73,0,0,0-.56.07l-.23,0,0,0a2.21,2.21,0,0,0-.25.05l-26.14,8a4.68,4.68,0,0,0-3.06,5.54h0c0,.07,0,.13.05.2s.08.31.13.47a2.72,2.72,0,0,0,.11.25,4.08,4.08,0,0,0,.19.42c.05.09.11.16.16.24a3.12,3.12,0,0,0,.25.35l.22.23a2.43,2.43,0,0,0,.29.26,2.82,2.82,0,0,0,.29.18c.11.06.2.13.31.18s.26.08.39.12.21.07.32.08a2.86,2.86,0,0,0,.51,0,2.81,2.81,0,0,0,.29,0,3.8,3.8,0,0,0,.89-.18l25.87-7.91a33.92,33.92,0,0,0,1.3,6.22c.68,1.42,5.1,10.44,6.61,13.54q1.59,3.24,3.15,6.49l-.17.09-.17.09a.82.82,0,0,0-.4,1,.79.79,0,0,0,.77.61l.71,0,.32.67c.48,1-.89,19.29-11.77,44.3-9.93,22.84-30.29,56.35-70.85,86.7l-.11-.21q-5-10.08-10-20.19Q252,342,241.06,319.86l-3.19-6.49,0,0a.43.43,0,0,0,.16-.52l-.37-.87a.38.38,0,0,0-.56-.17l0,0-1-2.1s0,0,0,0l1.49-1.15,18.39-14.6a3.45,3.45,0,0,0-.7-2.45h0a8.64,8.64,0,0,0-1.46-1.73l-.13-.12,0,0h0c-.32-.29-.68-.59-1.08-.89l-.23-.17c-.45-.33-.93-.66-1.48-1-3.08-1.89-8.59-.26-13.15,1.73-1.3.56-2.62,1.08-4,1.54a52.79,52.79,0,0,1-12.41,2.63l-1.12.11-.14,0c-.79.08-1.58.18-2.37.31l-1.2.2a26.94,26.94,0,0,0-4.45,1.17c-2.66,1-4.52,2.45-4.52,4.58,0,.49,0,.95,0,1.38,0,.12,0,.23,0,.34,0,.31.05.62.08.9,0,.11,0,.22,0,.33,0,.26.09.52.14.77,0,.09.05.18.07.27.06.24.13.48.2.69l.09.22a5,5,0,0,0,.28.62l.09.17a6.08,6.08,0,0,0,.38.56l.09.11a4.93,4.93,0,0,0,.5.52l.07.06c1.61,1.38,4.28,1.84,8.41,2.24a37.68,37.68,0,0,1,10.69,2.67l.78,2.24a3.29,3.29,0,0,0,.83,1.6,1.68,1.68,0,0,0,1.56.08,14.45,14.45,0,0,0,1.81-.65.25.25,0,0,1,0,.07.41.41,0,0,0,.47.2l.31.62-.27.52c-1,2.06-2.16,4.14-3.21,6.11-1,1.77-1.94,3.59-2.86,5.39l-.61,1.18-1-.81c-5-4-12.26-11.85-19.4-10.64-.34.05-89.39,15.87-90.88,16.18a10.48,10.48,0,0,0-8.22,7.46c-1.1,4,1.13,14.23,4.35,17.34,1.84,1.79,3.72,3.57,5.58,5.35a91.07,91.07,0,0,0-20.56,46.59l0,0,0,.3q-.37,2.92-.57,5.9l-.06,1c-.11,2-.17,4.06-.15,6.11l.06,0a11.79,11.79,0,0,0,5.25-8.87,85.91,85.91,0,0,1,19.72-47.54L123,368.8a84.15,84.15,0,0,0-18.48,67.34c7.11,44.89,48,75.31,91.41,68,37.92-6.43,65.15-39.59,66.67-77.81,3.17,13.89,16.22,23.08,30,20.74a26.77,26.77,0,0,0,21-18.89l13.16,1.77-.35-.62,5.14,8.92a2.06,2.06,0,0,0,1.3,1,2,2,0,0,0,1.57-.31l3.38-2.36a2.15,2.15,0,0,0,.59-2.83l-8-13.51a2,2,0,0,0-1.26-.95h0a2.07,2.07,0,0,0-.66,0h-.12a2,2,0,0,0-.76.3l-3.29,2.15a2.12,2.12,0,0,0-.66,2.84l1.11,1.92L314.59,424a28.32,28.32,0,0,0-.06-8.42A23.83,23.83,0,0,0,314,413a28.21,28.21,0,0,0-9-14.53c18.78-26.6,38.05-53.5,56.72-79.58l15.46-21.59c1.66,3.32,3.43,6.85,5.26,10.48-25.06,19.87-38.9,52.85-33.67,87.43,0,0,0,0,0,0,.07.48.14.95.22,1.42a95.11,95.11,0,0,0,3.73,14.89l.15-.21a12.1,12.1,0,0,0,1.4-2.37,12.92,12.92,0,0,0,.76-8.1c-.43-1.91-.81-3.85-1.12-5.82-.47-3-.78-5.91-1-8.84a89.71,89.71,0,0,1,.65-17.31c.19-1.41.42-2.82.67-4.21q.78-4.18,1.93-8.23A88.75,88.75,0,0,1,366.3,333.7a87.85,87.85,0,0,1,10-13.06q2.81-3,5.89-5.75c.87-.77,1.77-1.52,2.67-2.25.49.95,1,1.91,1.45,2.87a83.77,83.77,0,0,0-29,77.79c7.11,44.88,48,75.31,91.41,67.95s72.79-49.7,65.68-94.58S466.36,291.36,423,298.71ZM233.25,313.9c-.37.16-.73.32-1.1.44-.57.19-1.15.53-1.43-.15s-.52-1.38-.75-2.09a4.69,4.69,0,0,0,2.6-.12l.85,1.72C233.35,313.76,233.27,313.81,233.25,313.9ZM120.72,360.79,119,359.16l-1.39-1.29c-.92-.85-1.87-1.73-2.75-2.65-1.93-2-3.62-10.52-3-12.91a6.11,6.11,0,0,1,4.75-4.31c1.13-.27,88-15.67,88-15.67,6.85-1.16,14.51,4.74,20.31,10l.65.59-4.69,9.37c-.77-.39-1.55-.75-2.33-1.11s-1.34-.63-2-.92c-.86-.38-1.73-.73-2.6-1.07-.43-.17-.85-.37-1.29-.53h-.07a83.27,83.27,0,0,0-43.49-4.22A85.21,85.21,0,0,0,120.72,360.79Zm89.78,85.69-14.27-15.15,1.9-.2,18.15,5.26,28.29,14.12A70,70,0,0,1,236,465.42Zm24.87,19.82c-.93,1.2-1.91,2.36-2.91,3.49L214.77,451Zm-52.2-50.09-.69-1,.74-2.7.67,2.72Zm3.22,16.15,0,.25-.16-.24ZM190.56,413l-.62.43,5.74-11.46Zm.84.75L206,403.43l-11.17,11.29-4.4,1.08Zm-3.16-6.1,2-21,8.56-31.45A65.34,65.34,0,0,1,212,360.12Zm.67,7.85.72-.51-.54,1.17-.58.14Zm-2-5.2-1,2-1.2,1.74-.91-3.68,4.79-17.59Zm3.94-29.91,2.51-26.27c1.48.24,2.95.54,4.41.88Zm21.33-11.42,3.44-6.88c1.24.72,2.46,1.46,3.65,2.25l-14.85,21.35Zm-42-27.39a78.45,78.45,0,0,0-44.41,24.09l-1.45-1.38a80.31,80.31,0,0,1,45.54-24.73,78.64,78.64,0,0,1,48.71,7.34l-.91,1.82A76.79,76.79,0,0,0,170.23,341.55ZM181.69,414l-2.06-3.14-1.32-18.22,4.38,17.71Zm.82,3.2-.25.36-.35-.26.19-.72ZM170,354.56c.69-.14,1.37-.29,2.06-.41s1.59-.23,2.38-.33l1.89,26.36ZM152.13,361l10.53,24.17-14.45-21.89Q150.13,362.06,152.13,361Zm-20,16.39c.95.9,1.91,1.82,2.86,2.71q5.66,5.34,11.3,10.69l.07.08-15.7-11.65Q131.33,378.27,132.08,377.37Zm2.78-3.14a67.75,67.75,0,0,1,12.43-10.4l17.88,27.09,9,20.58-.34-.25ZM176,420.69l.38.41a5.94,5.94,0,0,0-.43.92l-.22.1-2.44-1.22Zm-.66-2.28,1.19,1.13h-.12Zm.26,6.34-2.36-.25,2.38-1.11A6.85,6.85,0,0,0,175.56,424.75Zm.58,2.68-1.78.47,1.48-1.5C175.92,426.74,176,427.09,176.14,427.43Zm1.27,2.66-.85.6.53-1.13A5.74,5.74,0,0,0,177.41,430.09ZM175,419.65l-3.66.29L155.42,412l17,4.93Zm-.56,3.07-3.34,1.56-17.58-1.83,17.62-1.38Zm.49,3.07-2.62,2.66L155.17,433l16.09-7.54Zm-2.08,3.66,3.55-.94-1.58,3.42-14.6,10.29Zm2.81,3.23,2.49-1.75.46.43-.28,3L168,449.16Zm3.7,2.05,1.54-2.21c.26.06.56.08.85.12l.67,2.68-4.79,17.59Zm.21-2.2,0-.48a2.09,2.09,0,0,0,.23.08Zm-.7-17.53-3-2.21-7.25-16.66,10,15.09ZM166.1,390.36l-13-29.89a65.48,65.48,0,0,1,15.87-5.7l7.84,31.72L178.42,409ZM179.78,413l1.54,2.32-.34,1.22-1-.74Zm.89,4.67v.06l-.32-.3Zm2.44,15-.14.49-.11-.46Zm1.14-.12.79-.08,1.53,2.32L187.88,453l-4.38-17.7Zm-6.39-46.27-2.35-32.65a64.49,64.49,0,0,1,16.79.25l-3.11,32.53-5.92,21.75Zm9.6,45.94,1.78-.19,1.08.81,7.26,16.66-10-15.09Zm3.6-.38,3.81-.4,10.66,11.32-14.35-10.65Zm10-1.05,3.37-.35,6.37,3.18Zm5.41-.56,36.92-3.87,6.67.69a71.14,71.14,0,0,1-3.13,17l-30.25-8.77Zm18.63-22.92,20.57-9.63c.52,1.39,1,2.81,1.43,4.26Zm-5.42,1.32-22.81,5.57L211,399.87l26-18.32a69.35,69.35,0,0,1,8.2,15.13Zm-4.25-13.21,18.17-18.37c1,1.16,1.92,2.35,2.83,3.58Zm-5,3.56-18,12.72,9.45-20.37,18.39-26.43a68.58,68.58,0,0,1,12.7,11.33ZM130,380.07l22.9,17,8.17,7.76,9.91,10.52-21-6.09L121.35,395A70.49,70.49,0,0,1,130,380.07Zm-9,16L144,407.55l-24.72-7.16C119.8,398.91,120.34,397.46,120.93,396ZM119,401.44l30.54,8.86,19.67,9.81-21.77,1.71-31.58-3.28A71.14,71.14,0,0,1,119,401.44Zm-3.21,18.2,25.56,2.66-25.6,2C115.7,422.75,115.71,421.19,115.78,419.64Zm.81,14.41a74.69,74.69,0,0,1-.82-8.63l31.65-2.49,21.72,2.26-19.89,9.31-30.75,8.09A73.58,73.58,0,0,1,116.59,434.05Zm2.22,9.6,24.87-6.54L120.3,448.06C119.75,446.62,119.26,445.15,118.81,443.65Zm1.89,5.43,28.9-13.53L170.76,430l-15.61,15.79L129,464.23A69.89,69.89,0,0,1,120.7,449.08Zm8.9,16,21.18-14.92-18.31,18.52C131.48,467.55,130.52,466.36,129.6,465.12Zm3.59,4.42,22.64-22.9,18-12.72-9.45,20.37L146,480.84A68.05,68.05,0,0,1,133.19,469.54Zm13.66,11.91L161.77,460l-11.05,23.82C149.4,483.06,148.11,482.28,146.85,481.45Zm4.81,2.89,13.68-29.48,12.76-18.34L176,459l-8.58,31.49A66,66,0,0,1,151.66,484.34Zm16.76,6.37,6.93-25.43-2.52,26.29C171.35,491.34,169.88,491.05,168.42,490.71Zm5.47,1L177,459.2l5.92-21.74,5.41,21.89,2.35,32.56A65,65,0,0,1,173.89,491.74Zm19.92-.28c-.69.12-1.38.2-2.07.29l-1.89-26.28L196.16,491C195.38,491.16,194.6,491.32,193.81,491.46Zm3.4-.67-7.82-31.62-1.62-22.53,12.32,18.65L213,485A65.49,65.49,0,0,1,197.21,490.79ZM214,484.5l-10.45-24,14.34,21.71Q216,483.42,214,484.5Zm-13-29.76-9-20.59,17.74,13.17,21.93,23.29a67.57,67.57,0,0,1-12.93,11Zm44-5.25L222.17,438.1l24.41,7.08C246.1,446.64,245.57,448.07,245,449.49Zm8.12-23.2h0c0-.31,0-.62,0-.93h0C253.15,425.67,253.14,426,253.12,426.29Zm6.15-27.3a81.76,81.76,0,0,0-37.93-48.37l.91-1.81a82.63,82.63,0,0,1,16.47,12.27,4.22,4.22,0,0,0,4.23,1,4,4,0,0,0,2.15-1.67l0,0c-1.16-1.23-2.36-2.43-3.58-3.59-.45-.42-.92-.81-1.37-1.22-.79-.72-1.58-1.45-2.4-2.14-.58-.49-1.18-.94-1.77-1.42s-1.43-1.15-2.17-1.7-1.35-1-2-1.45-1.36-1-2.07-1.44-1.48-.94-2.23-1.4-1.33-.84-2-1.24l-1-.55,12.05-24.09,1,2c10.08,20.47,32,64.53,36.68,73.24Zm59.27-26.76q-8.46,11.88-16.88,23.78a23.77,23.77,0,0,0-17.56-3.08l-6.15,1.5c-.56-1.28-1.81-3.81-2.93-6,41.28-25.35,63.47-54.14,74.82-73.91,12.41-21.62,14.92-37.41,14.94-37.57l.53-3.48,1.53,3.15c.71,1.46,3.92,7.93,8.23,16.53C352.38,324.79,334.92,349.23,318.54,372.23ZM502,368.72a71.48,71.48,0,0,1,.82,8.69l-31.34,2.47-21.72-2.26,19.89-9.31,30.47-8A72.14,72.14,0,0,1,502,368.72Zm-38.79,34.91L448,387.46l21,6.09,28.29,14.11a70.4,70.4,0,0,1-8.55,14.92Zm24.87,19.83c-.93,1.2-1.91,2.36-2.91,3.49l-17.7-18.79ZM442,380.05h0Zm-.34-2.17h0l0,0Zm1.62,2.81,2.44,1.22-2.7.21-.86-.91Zm-1.09-1.78L443,378l2.7.29-2.48,1.16Zm.48-2-1.22-.12.53-1.15,2.64-.69Zm-1.43-2.22L440,375l.13-1.27,2.24-1.58Zm-.62,1.34,0,0h0Zm1,6.24h0v0Zm-2.48-9.15-1,.71-.31-1.23,1.59-2.28Zm1.37,11,0,0h0ZM439,374.54l0,0v0Zm.95,10.56,1.18.35L442.2,388,440,386.37Zm1.44-1.74,1.23-.1,1.9,2-2.62-.76Zm2.62-.21,3.66-.28,15.91,7.93-17-4.93Zm.56-3.06,3.34-1.56,17.58,1.82-17.62,1.39ZM444,377l2.63-2.66,17.11-4.5-16.09,7.54Zm2.08-3.66-3.55.94,1.59-3.42,14.59-10.29Zm-2.8-3.23-3,2.14.36-3.78L451,353.65Zm-3.71-2.05-2.14,3.08-.91-3.67,4.79-17.59Zm.49,19.73,3,2.21,7.26,16.66-10-15.09Zm2.33-2,3.54,1L458.28,400l-14.35-10.66Zm7.33-3.14L471.52,381l31.26,3.25a70.64,70.64,0,0,1-3.12,17l-30.25-8.77Zm27.85-2.19,25.3-2c0,1.54,0,3.08,0,4.61Zm22.26-21.28-24.6,6.47,23.14-10.84C498.93,356.29,499.41,357.75,499.86,359.23ZM498,353.84l-28.65,13.41-21.16,5.57L463.79,357l26-18.32A69.35,69.35,0,0,1,498,353.84Zm-8.84-16-21,14.79,18.16-18.37C487.3,335.4,488.25,336.59,489.15,337.82Zm-3.54-4.4-22.5,22.75-18,12.71,9.45-20.36,18.39-26.44A68.64,68.64,0,0,1,485.61,333.42ZM472,321.47l-14.85,21.35,11-23.71C469.48,319.86,470.76,320.64,472,321.47Zm-4.79-2.9L453.6,348l-12.76,18.34L443,343.82l8.57-31.46A66.17,66.17,0,0,1,467.23,318.57Zm-16.72-6.45-6.91,25.41,2.51-26.28C447.59,311.49,449.06,311.78,450.51,312.12Zm-5.46-1.05-3.11,32.54L436,365.35l-5.41-21.89-2.35-32.64A64.49,64.49,0,0,1,445.05,311.07ZM437,373.76l0,0v0Zm1.88,11.74v0l0,0Zm-4-11.79Zm2,12.54h0Zm-2.4-15.12L432.37,368l-1.31-18.22,4.38,17.7Zm-.38,1.39-.33,1.22-1-.74-.2-2.8Zm1.71,14.08.69,1-.74,2.7-.67-2.72Zm1.48,2.24,2.07,3.13,1.31,18.23-4.38-17.71Zm.38-1.39.33-1.22,1,.74.2,2.8Zm-1.71-14.08-.69-1.05.74-2.71.67,2.72Zm-11.1-62.06c.79-.13,1.59-.23,2.38-.34l1.89,26.37-6.33-25.62C423.45,311.58,424.13,311.43,424.82,311.31Zm-3.11.61,7.84,31.72,1.62,22.53-12.32-18.65-13-29.89A65.73,65.73,0,0,1,421.71,311.92Zm11.13,62.55v0l0,0Zm1.88,11.74v0Zm-7-9.4-3.66.29-15.91-7.94,17,4.93ZM413.41,360l1.94,1.44,11.61,12-1.22-.35Zm20.18,26.15.3,1.23-1.59,2.29.27-2.8Zm-.88-.72v0l0,0Zm-1.15.81-2.25,1.59,1.18-2.54,1.19-.31Zm-1.84-6.34h0Zm.35,2.17h0v0Zm-1.63-2.81L426,378.06l2.7-.21.86.91Zm1.09,1.77-.87.89-2.71-.28,2.48-1.16Zm-.48,2,1.22.13-.53,1.15-2.63.69Zm2.05.89,0,0h0Zm-1-6.24h0v0Zm-1-1-1.89-2,1.27.37,1.52,1.57Zm-1.95,3.17-3.34,1.57-17.57-1.83,17.61-1.38Zm.49,3.08L425,385.6l-17.12,4.5L424,382.57Zm-2.08,3.65,3.55-.93-1.59,3.42L413,399.38Zm2.81,3.24,3-2.14-.36,3.78-10.32,14.83Zm3.7,2,2.15-3.08.9,3.68-4.79,17.59Zm-.49-19.72-3-2.22-7.26-16.65,10,15.08Zm-26.72-54,10.53,24.16L401,320.42C402.24,319.62,403.54,318.86,404.88,318.14ZM400,321l17.89,27.08L426.58,368l-16.21-17a31.5,31.5,0,0,1-5.38-7.63c-2.06-4.11-5.47-10.9-9.55-19.05C396.93,323.12,398.45,322,400,321Zm-7.88,6c4,7.89,7.69,15,10.29,19.94a20.38,20.38,0,0,0,3.41,4.71l4.84,5-1.55-1.14L387,332A71.47,71.47,0,0,1,392.15,327Zm-5.84,5.85,17.87,19-20.82-15.45C384.3,335.14,385.29,334,386.31,332.83Zm-3.61,4.39,25.74,19.11,15.24,16.18-21-6.09L374.1,352.17A70.56,70.56,0,0,1,382.7,337.22Zm-9,16,23.11,11.52-24.72-7.16C372.55,356.07,373.09,354.62,373.67,353.19Zm-1.93,5.41,30.54,8.86,19.66,9.81L400.18,379l-31.58-3.29A71.06,71.06,0,0,1,371.74,358.6Zm-3.21,18.2,25.56,2.66-25.61,2C368.45,379.91,368.46,378.35,368.53,376.8Zm.81,14.41a72.55,72.55,0,0,1-.82-8.63l31.65-2.49,21.72,2.26L402,391.66l-30.75,8.09A74,74,0,0,1,369.34,391.21Zm2.22,9.6,24.87-6.54-23.38,11C372.5,403.77,372,402.3,371.56,400.81Zm1.89,5.43,28.9-13.53,21.16-5.56L407.9,402.94l-26.19,18.45A70.13,70.13,0,0,1,373.45,406.24Zm8.9,16,21.18-14.92-18.31,18.51C384.23,424.71,383.27,423.52,382.35,422.28Zm3.59,4.42,22.64-22.9,18-12.72-9.45,20.37L398.7,438A68.77,68.77,0,0,1,385.94,426.7Zm13.66,11.9,14.92-21.45-11,23.82C402.15,440.22,400.86,439.44,399.6,438.6Zm4.81,2.9L418.09,412l12.76-18.33-2.15,22.46-8.58,31.49A65.56,65.56,0,0,1,404.41,441.5Zm16.76,6.37,6.93-25.43-2.52,26.29C424.1,448.49,422.63,448.2,421.17,447.87Zm5.47,1,3.11-32.54,5.92-21.74,5.41,21.88,2.35,32.56A64.54,64.54,0,0,1,426.64,448.9Zm19.92-.28c-.69.11-1.38.2-2.07.29l-1.89-26.28,6.31,25.52C448.13,448.32,447.35,448.48,446.56,448.62ZM450,448l-7.82-31.63-1.62-22.52,12.32,18.65,13,29.73A65.91,65.91,0,0,1,450,448Zm16.77-6.29-10.45-24,14.35,21.72Q468.73,440.58,466.73,441.66Zm-13-29.77-9-20.58,17.74,13.17,21.93,23.29a67.93,67.93,0,0,1-12.93,11Zm44-5.24-22.84-11.39,24.42,7.07C498.85,403.79,498.32,405.23,497.75,406.65Z" transform="translate(0 -189.72)"/><path class="cls-2" d="M39,571.67c3.23,1.6,6.57,3.25,10,4.56a214.34,214.34,0,0,0,27.52,9.47,248.77,248.77,0,0,0,51.19,8.15c4.57.29,8.59.36,11.89.41-5.43-3.07-12.42-7.23-19-11.79-3.56-2.31-7.15-5-9.88-7l-2.06-1.55c-2.25-1.69-4.37-3.28-6.23-4.86-4.71-3.94-7.67-6.56-7.67-6.56a2.34,2.34,0,0,1-.48-.56h0a0,0,0,0,0,0,0,2.92,2.92,0,0,1-.34-.86,2,2,0,0,1,0-.24,2.64,2.64,0,0,1,0-1l9.14-48c-2.47-.55-4.92-1.14-7.28-1.78A137.1,137.1,0,0,1,62.81,496.5l-2.4-1.42c-1.15-.67-2.22-1.31-3.2-1.93l-3.66-2.61q0,1.21-.06,2.64a128.74,128.74,0,0,0,.72,17.19A148.16,148.16,0,0,0,57,528c1.07,4.81,2,8.12,2,8.15a2.81,2.81,0,0,1-1.44,3.28c-.12.06-3.07,1.5-7.75,3.54a148.66,148.66,0,0,1-18.1,6.45,148.73,148.73,0,0,1-19.42,4.46l-2.41.41,7,4.93c2,1.27,4.28,2.64,6.77,4.11l7.44,4.37Z" transform="translate(0 -189.72)"/><path class="cls-3" d="M144.15,567.81A244.89,244.89,0,0,1,106,564.88c1.71,1.43,3.7,2.93,5.8,4.51l2.07,1.56c2.65,2,6.14,4.57,9.62,6.83a281.1,281.1,0,0,0,24.27,14.65l-.47-24.67C146.26,567.78,145.19,567.81,144.15,567.81Z" transform="translate(0 -189.72)"/><path class="cls-2" d="M600.34,478.41l2.41-.58-5.6-4.1c-1.46-1-3.19-2-5-3.17L589.63,469a181.34,181.34,0,0,0-43.13-18.67c-3.22-.92-6.56-1.77-10-2.56l-9.75,47.77a2.86,2.86,0,0,1-.49,1.08c-.07.09-.16.15-.24.24a2.74,2.74,0,0,1-.45.45s-.12,0-.18.07-.07.07-.11.09L518,501.13c-1.58.8-3.44,1.89-5.4,3.05l-1.68,1c-2.3,1.36-5,3-7.75,4.89l-.86.59c-2.33,1.58-4.56,3.1-6.65,4.66l-6.35,4.91-.05,0c2,0,4.46.12,7.11.33a142.81,142.81,0,0,1,29.88,5.09,103.2,103.2,0,0,1,25.29,10.88c.73.47,1.41.87,2,1.25s1.46.87,2.1,1.3l2.17,1.63c.15-.82.3-1.74.46-2.75a108.11,108.11,0,0,0,1.45-15.84,123.51,123.51,0,0,0-.6-16.52c-.48-4.55-1-7.69-1-7.72a2.82,2.82,0,0,1,1.31-2.86c.1-.07,2.72-1.64,6.92-3.88a136.46,136.46,0,0,1,16.27-7.3A134,134,0,0,1,600.34,478.41Z" transform="translate(0 -189.72)"/><path class="cls-1" d="M610.87,477l-10.7-7.88c-1.6-1.08-3.39-2.17-5.3-3.35l-2.47-1.53A183.68,183.68,0,0,0,547.93,445c-3.32-1-6.77-1.83-10.26-2.64l5.86-28.72a.41.41,0,0,0,0-.11,2.82,2.82,0,0,0,0-.82,2.87,2.87,0,0,0,0-.31,3,3,0,0,0-.32-.81,1.58,1.58,0,0,0-.12-.15,2.38,2.38,0,0,0-.31-.4,2.31,2.31,0,0,0-.19-.14,1.84,1.84,0,0,0-.22-.17,2.58,2.58,0,0,0-.83-.37l0,0a257,257,0,0,0-48.9-5.86c-16.1-.45-55.07-.64-70.19,1.21a365.64,365.64,0,0,0-39.07,6.8c-12.31,2.83-24.24,6.05-36.44,9.84-10.52,3.21-21.39,6.81-34.2,11.35-9.24,3.24-18.27,6.55-27,9.75l-5.33,2c-20.52,7.54-40.58,14.8-60.25,20.64-9.28,2.76-18.74,5.2-28,7.24a272.91,272.91,0,0,1-27.09,4.2c-19.19,1.87-36.76,1.21-52.24-2a.65.65,0,0,0-.14,0,2.55,2.55,0,0,0-.78,0h-.21a2.63,2.63,0,0,0-.82.36l-.08,0a1.31,1.31,0,0,0-.11.12,2.61,2.61,0,0,0-.52.53l-.15.22a2.89,2.89,0,0,0-.36.91L104,506.39c-2.36-.53-4.7-1.09-7-1.7a131.47,131.47,0,0,1-31.57-13c-.84-.51-1.66-1-2.44-1.44-1.08-.64-2.1-1.23-2.91-1.74l-7.56-5.35a2.61,2.61,0,0,0-2.69-.21,2.82,2.82,0,0,0-1.51,2.31c0,.13-.22,3.13-.3,7.86A133.1,133.1,0,0,0,48.85,511a154.92,154.92,0,0,0,2.92,18.32c.56,2.49,1.07,4.58,1.44,6-1.32.61-3.21,1.47-5.53,2.48a146.09,146.09,0,0,1-17.51,6.23,146.89,146.89,0,0,1-18.77,4.31c-5.27.9-9,1.37-9,1.38a2.72,2.72,0,0,0-2.29,2.1,2.83,2.83,0,0,0,1.08,3L14,563.94c2.11,1.36,4.47,2.76,7,4.28l7.63,4.46,8.08,4c3.34,1.65,6.8,3.36,10.39,4.72a219.23,219.23,0,0,0,28.11,9.67,253.46,253.46,0,0,0,52.27,8.32c4.88.32,9.18.38,12.63.43,1.53,0,2.91,0,4.27.08l6.25-.11.09,0a2.57,2.57,0,0,0,.81-.18l.25-.12c.08,0,.17-.07.25-.12a2.42,2.42,0,0,0,.42-.36l.08,0a0,0,0,0,1,0,0,3,3,0,0,0,.5-.8l.07-.21a3,3,0,0,0,.17-1l-.56-29.31c6.67-.21,13.46-.63,20.44-1.31a354.31,354.31,0,0,0,36.06-5.57c11.65-2.54,23-5.45,34.63-8.91,22-6.54,42.59-14,65.31-22.31l5-1.82c19.73-7.21,38.36-14,57.26-19.78,10.12-3.15,20.4-5.93,30.58-8.27a287.81,287.81,0,0,1,30.21-5.27c7.56-.94,38.57-.54,46.63-.69l.26,29.26a2.83,2.83,0,0,0,.19,1,2.56,2.56,0,0,0,.11.24,2.72,2.72,0,0,0,.42.64s.05.09.09.13l.05,0a2.57,2.57,0,0,0,.7.51h.05a2.25,2.25,0,0,0,1,.22l.12,0h0l3.85-.06c1,.07,2.15.1,3.46.13,2,0,4.36.11,7,.32a137.16,137.16,0,0,1,28.8,4.9,100.18,100.18,0,0,1,23.93,10.28c.73.47,1.45.9,2.13,1.31s1.32.78,1.76,1.07l5.52,4a2.6,2.6,0,0,0,1.53.49,2.52,2.52,0,0,0,1-.19,2.71,2.71,0,0,0,1.65-2c0-.11.63-2.85,1.32-7.2a115.75,115.75,0,0,0,1.52-16.66,129,129,0,0,0-.64-17.26c-.27-2.53-.53-4.62-.73-6,1.17-.67,2.94-1.66,5.14-2.83a131.11,131.11,0,0,1,15.68-7,128.65,128.65,0,0,1,16.94-5.24c4.78-1.17,8.18-1.83,8.21-1.84a2.76,2.76,0,0,0,2.14-2.14A2.84,2.84,0,0,0,610.87,477ZM559.54,495a2.82,2.82,0,0,0-1.31,2.86s.49,3.17,1,7.72a123.51,123.51,0,0,1,.6,16.52A108.11,108.11,0,0,1,558.35,538c-.16,1-.31,1.93-.46,2.75l-2.17-1.63c-.64-.43-1.35-.85-2.1-1.3s-1.31-.78-2-1.25a103.2,103.2,0,0,0-25.29-10.88,142.81,142.81,0,0,0-29.88-5.09c-2.65-.21-5.11-.28-7.11-.33l.05,0,6.35-4.91c2.09-1.56,4.32-3.08,6.65-4.66l.86-.59c2.73-1.89,5.45-3.53,7.75-4.89l1.68-1c2-1.16,3.82-2.25,5.4-3.05l7.29-3.64s.07-.07.11-.09.13,0,.18-.07a2.74,2.74,0,0,0,.45-.45c.08-.09.17-.15.24-.24a2.86,2.86,0,0,0,.49-1.08l9.75-47.77c3.39.79,6.73,1.64,10,2.56A181.34,181.34,0,0,1,589.63,469l2.48,1.54c1.85,1.13,3.58,2.2,5,3.17l5.6,4.1-2.41.58a134,134,0,0,0-17.61,5.45,136.46,136.46,0,0,0-16.27,7.3C562.26,493.4,559.64,495,559.54,495ZM312.31,522.48l-5,1.82c-22.64,8.31-43.16,15.71-65,22.21-11.52,3.41-22.73,6.29-34.21,8.8a352.15,352.15,0,0,1-35.5,5.49c-26.34,2.55-50.23,1.68-72.95-2.65l14.62-76.69c15.33,2.83,32.51,3.34,51.13,1.53,7.94-.76,16.71-2.12,27.65-4.28,9.49-2.09,19.07-4.56,28.48-7.35,19.82-5.89,40-13.18,60.57-20.74l5.32-1.95c8.72-3.2,17.74-6.5,26.94-9.74,12.75-4.51,23.55-8.09,34-11.28,12.1-3.75,23.9-6.94,36.1-9.74a356.55,356.55,0,0,1,38.53-6.7c14.85-1.82,53.55-1.62,69.39-1.18a254.94,254.94,0,0,1,45.28,5.16l-15.61,76.48a183.77,183.77,0,0,0-31.88-3.51c-12.28-.33-47.38-.69-58.69.72a290.28,290.28,0,0,0-30.75,5.36c-10.28,2.37-20.69,5.18-30.92,8.36C350.81,508.39,332.11,515.24,312.31,522.48ZM16.9,559.26l-7-4.93,2.41-.41a148.73,148.73,0,0,0,19.42-4.46A148.66,148.66,0,0,0,49.81,543c4.68-2,7.63-3.48,7.75-3.54A2.81,2.81,0,0,0,59,536.19s-.91-3.34-2-8.15a148.16,148.16,0,0,1-2.81-17.67,128.74,128.74,0,0,1-.72-17.19q0-1.43.06-2.64l3.66,2.61c1,.62,2,1.26,3.2,1.93l2.4,1.42a137.1,137.1,0,0,0,32.91,13.59c2.36.64,4.81,1.23,7.28,1.78l-9.14,48a2.64,2.64,0,0,0,0,1,2,2,0,0,0,0,.24,2.92,2.92,0,0,0,.34.86,0,0,0,0,1,0,0h0a2.34,2.34,0,0,0,.48.56s3,2.62,7.67,6.56c1.86,1.58,4,3.17,6.23,4.86l2.06,1.55c2.73,2,6.32,4.7,9.88,7,6.63,4.56,13.62,8.72,19,11.79-3.3,0-7.32-.12-11.89-.41a248.77,248.77,0,0,1-51.19-8.15A214.34,214.34,0,0,1,49,576.23c-3.45-1.31-6.79-3-10-4.56l-7.91-3.93-7.44-4.37C21.18,561.9,18.87,560.53,16.9,559.26Zm130.88,33.17a281.1,281.1,0,0,1-24.27-14.65c-3.48-2.26-7-4.84-9.62-6.83l-2.07-1.56c-2.1-1.58-4.09-3.08-5.8-4.51a244.89,244.89,0,0,0,38.13,2.93c1,0,2.11,0,3.16,0Zm336.61-75.32-.2-23.42c1.95,0,3.89,0,5.86.05a187.39,187.39,0,0,1,25.57,2.4c-1.72.88-3.63,2-5.65,3.19l-1.66,1c-2.4,1.4-5.23,3.11-8.09,5.09l-.84.58c-2.39,1.62-4.68,3.19-6.87,4.82l-6.39,4.94C485.51,516.22,484.93,516.67,484.39,517.11Z" transform="translate(0 -189.72)"/><path class="cls-3" d="M492.51,510.8c2.19-1.63,4.48-3.2,6.87-4.82l.84-.58c2.86-2,5.69-3.69,8.09-5.09l1.66-1c2-1.19,3.93-2.31,5.65-3.19a187.39,187.39,0,0,0-25.57-2.4c-2-.05-3.91,0-5.86-.05l.2,23.42c.54-.44,1.12-.89,1.73-1.37Z" transform="translate(0 -189.72)"/><path class="cls-2" d="M431.51,488.88c11.31-1.41,46.41-1.05,58.69-.72a183.77,183.77,0,0,1,31.88,3.51l15.61-76.48A254.94,254.94,0,0,0,492.41,410c-15.84-.44-54.54-.64-69.39,1.18a356.55,356.55,0,0,0-38.53,6.7c-12.2,2.8-24,6-36.1,9.74-10.45,3.19-21.25,6.77-34,11.28-9.2,3.24-18.22,6.54-26.94,9.74l-5.32,1.95c-20.61,7.56-40.75,14.85-60.57,20.74-9.41,2.79-19,5.26-28.48,7.35-10.94,2.16-19.71,3.52-27.65,4.28-18.62,1.81-35.8,1.3-51.13-1.53L99.68,558.15c22.72,4.33,46.61,5.2,72.95,2.65a352.15,352.15,0,0,0,35.5-5.49c11.48-2.51,22.69-5.39,34.21-8.8,21.84-6.5,42.36-13.9,65-22.21l5-1.82c19.8-7.24,38.5-14.09,57.53-19.88,10.23-3.18,20.64-6,30.92-8.36A290.28,290.28,0,0,1,431.51,488.88Z" transform="translate(0 -189.72)"/><text class="cls-4" transform="translate(158.36 349.32) rotate(-1.77) scale(0.97 1)">S</text><text class="cls-4" transform="translate(193.96 348.06) rotate(-4.89) scale(0.97 1)">h</text><text class="cls-4" transform="translate(235.65 344.43) rotate(-12.98) scale(0.97 1)">o</text><text class="cls-4" transform="translate(276.5 334.25) rotate(-21.91) scale(0.97 1)">p</text><text class="cls-4" transform="translate(311.24 319.71) rotate(-25.06) scale(0.97 1)"> </text><text class="cls-4" transform="translate(326.33 312.36) rotate(-23.96) scale(0.97 1)">B</text><text class="cls-4" transform="translate(361.72 297.06) rotate(-18.73) scale(0.97 1)">i</text><text class="cls-4" transform="matrix(0.94, -0.22, 0.23, 0.97, 379.87, 290.73)">k</text><text class="cls-4" transform="translate(419.22 281.62) rotate(-8.35) scale(0.97 1)">e</text><text class="cls-4" transform="matrix(0.97, -0.04, 0.04, 1, 455.86, 276.33)">s</text></svg>